# xmcd
# 
# Track frame offsets:
#     150
#     13312
#     23498
#     41590
#     57293
#     68742
#     81539
#     97319
#     107449
#     118573
#     130595
#     145832
# 
# Disc length: 2178
# 
# Revision: 0
# Processed by: cddbd v1.5.2PL0 Copyright (c) Steve Scherf et al.
# Submitted via: fre:ac v1.0.17
# 
DISCID=a008800c
DTITLE=Rockabilly Heart - Custom Made
DYEAR=2015
DGENRE=Country
TTITLE0=We Want What We Get
TTITLE1=Beer Buzz
TTITLE2=Custom Made
TTITLE3=Blackberry Wine
TTITLE4=Lousiana Style
TTITLE5=Ten Good Men
TTITLE6=Sugar And Gold
TTITLE7=South Island Rumble
TTITLE8=Stop And Go
TTITLE9=Tease Me
TTITLE10=Love Worn
TTITLE11=Don't Die With The Music In You
EXTD=
EXTT0=
EXTT1=
EXTT2=
EXTT3=
EXTT4=
EXTT5=
EXTT6=
EXTT7=
EXTT8=
EXTT9=
EXTT10=
EXTT11=
PLAYORDER=
